<svg version="1.1" xmlns="http://www.w3.org/2000/svg" viewBox="0 0 2385 928" width="2385" height="928">
  <!-- svg-source:excalidraw -->
  
  <defs>
    <style class="style-fonts">
      @font-face {
        font-family: "Virgil";
        src: url("https://excalidraw.com/Virgil.woff2");
      }
      @font-face {
        font-family: "Cascadia";
        src: url("https://excalidraw.com/Cascadia.woff2");
      }
      @font-face {
        font-family: "Assistant";
        src: url("https://excalidraw.com/Assistant-Regular.woff2");
      }
    </style>
    
  </defs>
  <g stroke-linecap="round" transform="translate(10 283) rotate(0 375.5 314)"><path d="M0 0 C297.33 0, 594.66 0, 751 0 M0 0 C219.24 0, 438.48 0, 751 0 M751 0 C751 182.61, 751 365.22, 751 628 M751 0 C751 179.85, 751 359.7, 751 628 M751 628 C457.52 628, 164.03 628, 0 628 M751 628 C527.1 628, 303.21 628, 0 628 M0 628 C0 412.13, 0 196.26, 0 0 M0 628 C0 385.47, 0 142.94, 0 0" stroke="#1e1e1e" stroke-width="4" fill="none"></path></g><g transform="translate(46 312) rotate(0 92.626953125 16.100000000000023)"><text x="0" y="25.760546874999996" font-family="Helvetica, Segoe UI Emoji" font-size="28px" fill="#1e1e1e" text-anchor="start" style="white-space: pre;" direction="ltr" dominant-baseline="alphabetic">region/laptop 1</text></g><g stroke-linecap="round" transform="translate(819.5 282) rotate(0 375.5 314)"><path d="M0 0 C167.64 0, 335.29 0, 751 0 M0 0 C179.21 0, 358.42 0, 751 0 M751 0 C751 228.52, 751 457.04, 751 628 M751 0 C751 235.59, 751 471.18, 751 628 M751 628 C488.01 628, 225.02 628, 0 628 M751 628 C565.76 628, 380.52 628, 0 628 M0 628 C0 450.73, 0 273.45, 0 0 M0 628 C0 488.37, 0 348.74, 0 0" stroke="#1e1e1e" stroke-width="4" fill="none"></path></g><g transform="translate(855.5 311) rotate(0 92.626953125 16.100000000000023)"><text x="0" y="25.760546874999996" font-family="Helvetica, Segoe UI Emoji" font-size="28px" fill="#1e1e1e" text-anchor="start" style="white-space: pre;" direction="ltr" dominant-baseline="alphabetic">region/laptop 2</text></g><g stroke-linecap="round" transform="translate(1624 290) rotate(0 375.5 314)"><path d="M0 0 C250.87 0, 501.74 0, 751 0 M0 0 C180.52 0, 361.04 0, 751 0 M751 0 C751 209.03, 751 418.06, 751 628 M751 0 C751 248.97, 751 497.93, 751 628 M751 628 C600.34 628, 449.68 628, 0 628 M751 628 C527.66 628, 304.31 628, 0 628 M0 628 C0 414.59, 0 201.18, 0 0 M0 628 C0 394.03, 0 160.06, 0 0" stroke="#1e1e1e" stroke-width="4" fill="none"></path></g><g transform="translate(1664 325) rotate(0 92.626953125 16.100000000000023)"><text x="0" y="25.760546874999996" font-family="Helvetica, Segoe UI Emoji" font-size="28px" fill="#1e1e1e" text-anchor="start" style="white-space: pre;" direction="ltr" dominant-baseline="alphabetic">region/laptop 3</text></g><g stroke-linecap="round" transform="translate(144 410) rotate(0 220 50)"><path d="M0 0 C103.7 0, 207.41 0, 440 0 M0 0 C130.97 0, 261.93 0, 440 0 M440 0 C440 36.44, 440 72.87, 440 100 M440 0 C440 34.14, 440 68.28, 440 100 M440 100 C322.02 100, 204.05 100, 0 100 M440 100 C293.88 100, 147.76 100, 0 100 M0 100 C0 69.82, 0 39.64, 0 0 M0 100 C0 69.08, 0 38.15, 0 0" stroke="#1e1e1e" stroke-width="4" fill="none"></path></g><g transform="translate(164 436.3571428571429) rotate(0 50.572265625 16.100000000000023)"><text x="0" y="25.760546874999996" font-family="Helvetica, Segoe UI Emoji" font-size="28px" fill="#1e1e1e" text-anchor="start" style="white-space: pre;" direction="ltr" dominant-baseline="alphabetic">server 1</text></g><g stroke-linecap="round" transform="translate(964 410) rotate(0 220 50)"><path d="M0 0 C117.37 0, 234.73 0, 440 0 M0 0 C123.07 0, 246.14 0, 440 0 M440 0 C440 25.64, 440 51.28, 440 100 M440 0 C440 26.99, 440 53.97, 440 100 M440 100 C303.57 100, 167.14 100, 0 100 M440 100 C307.46 100, 174.93 100, 0 100 M0 100 C0 61.5, 0 23.01, 0 0 M0 100 C0 62.65, 0 25.31, 0 0" stroke="#1e1e1e" stroke-width="4" fill="none"></path></g><g transform="translate(984 436.3571428571429) rotate(0 50.572265625 16.100000000000023)"><text x="0" y="25.760546874999996" font-family="Helvetica, Segoe UI Emoji" font-size="28px" fill="#1e1e1e" text-anchor="start" style="white-space: pre;" direction="ltr" dominant-baseline="alphabetic">server 2</text></g><g stroke-linecap="round" transform="translate(1784 410) rotate(0 220 50)"><path d="M0 0 C174.69 0, 349.37 0, 440 0 M0 0 C142.79 0, 285.58 0, 440 0 M440 0 C440 23.81, 440 47.62, 440 100 M440 0 C440 31.04, 440 62.09, 440 100 M440 100 C301.4 100, 162.79 100, 0 100 M440 100 C341.43 100, 242.85 100, 0 100 M0 100 C0 76.28, 0 52.56, 0 0 M0 100 C0 62.49, 0 24.98, 0 0" stroke="#1e1e1e" stroke-width="4" fill="none"></path></g><g transform="translate(1804 436.3571428571429) rotate(0 50.572265625 16.100000000000023)"><text x="0" y="25.760546874999996" font-family="Helvetica, Segoe UI Emoji" font-size="28px" fill="#1e1e1e" text-anchor="start" style="white-space: pre;" direction="ltr" dominant-baseline="alphabetic">server 3</text></g><g stroke-linecap="round" transform="translate(84 30) rotate(0 280 60)"><path d="M560 60 C560 61.36, 559.78 62.73, 559.35 64.09 C558.91 65.46, 558.26 66.82, 557.39 68.17 C556.52 69.52, 555.44 70.87, 554.14 72.21 C552.85 73.54, 551.34 74.87, 549.62 76.19 C547.9 77.5, 545.97 78.81, 543.83 80.09 C541.7 81.38, 539.36 82.65, 536.82 83.9 C534.28 85.16, 531.54 86.39, 528.61 87.6 C525.68 88.82, 522.55 90.01, 519.24 91.18 C515.93 92.34, 512.42 93.49, 508.75 94.6 C505.08 95.72, 501.22 96.81, 497.2 97.87 C493.18 98.92, 488.98 99.96, 484.63 100.95 C480.29 101.95, 475.77 102.92, 471.11 103.85 C466.46 104.78, 461.65 105.68, 456.7 106.54 C451.76 107.4, 446.67 108.23, 441.47 109.02 C436.27 109.81, 430.93 110.56, 425.48 111.27 C420.04 111.97, 414.47 112.65, 408.82 113.27 C403.16 113.9, 397.39 114.49, 391.55 115.03 C385.71 115.58, 379.77 116.08, 373.77 116.54 C367.76 116.99, 361.68 117.41, 355.54 117.78 C349.41 118.14, 343.2 118.47, 336.97 118.75 C330.73 119.02, 324.44 119.26, 318.13 119.44 C311.82 119.63, 305.46 119.77, 299.11 119.86 C292.75 119.95, 286.37 120, 280 120 C273.63 120, 267.25 119.95, 260.89 119.86 C254.54 119.77, 248.18 119.63, 241.87 119.44 C235.56 119.26, 229.27 119.02, 223.03 118.75 C216.8 118.47, 210.59 118.14, 204.46 117.78 C198.32 117.41, 192.24 116.99, 186.23 116.54 C180.23 116.08, 174.29 115.58, 168.45 115.03 C162.61 114.49, 156.84 113.9, 151.18 113.27 C145.53 112.65, 139.96 111.97, 134.52 111.27 C129.07 110.56, 123.73 109.81, 118.53 109.02 C113.33 108.23, 108.24 107.4, 103.3 106.54 C98.35 105.68, 93.54 104.78, 88.89 103.85 C84.23 102.92, 79.71 101.95, 75.37 100.95 C71.02 99.96, 66.82 98.92, 62.8 97.87 C58.78 96.81, 54.92 95.72, 51.25 94.6 C47.58 93.49, 44.07 92.34, 40.76 91.18 C37.45 90.01, 34.32 88.82, 31.39 87.6 C28.46 86.39, 25.72 85.16, 23.18 83.9 C20.64 82.65, 18.3 81.38, 16.17 80.09 C14.03 78.81, 12.1 77.5, 10.38 76.19 C8.66 74.87, 7.15 73.54, 5.86 72.21 C4.56 70.87, 3.48 69.52, 2.61 68.17 C1.74 66.82, 1.09 65.46, 0.65 64.09 C0.22 62.73, 0 61.36, 0 60 C0 58.64, 0.22 57.27, 0.65 55.91 C1.09 54.54, 1.74 53.18, 2.61 51.83 C3.48 50.48, 4.56 49.13, 5.86 47.79 C7.15 46.46, 8.66 45.13, 10.38 43.81 C12.1 42.5, 14.03 41.19, 16.17 39.91 C18.3 38.62, 20.64 37.35, 23.18 36.1 C25.72 34.84, 28.46 33.61, 31.39 32.4 C34.32 31.18, 37.45 29.99, 40.76 28.82 C44.07 27.66, 47.58 26.51, 51.25 25.4 C54.92 24.28, 58.78 23.19, 62.8 22.13 C66.82 21.08, 71.02 20.04, 75.37 19.05 C79.71 18.05, 84.23 17.08, 88.89 16.15 C93.54 15.22, 98.35 14.32, 103.3 13.46 C108.24 12.6, 113.33 11.77, 118.53 10.98 C123.73 10.19, 129.07 9.44, 134.52 8.73 C139.96 8.03, 145.53 7.35, 151.18 6.73 C156.84 6.1, 162.61 5.51, 168.45 4.97 C174.29 4.42, 180.23 3.92, 186.23 3.46 C192.24 3.01, 198.32 2.59, 204.46 2.22 C210.59 1.86, 216.8 1.53, 223.03 1.25 C229.27 0.98, 235.56 0.74, 241.87 0.56 C248.18 0.37, 254.54 0.23, 260.89 0.14 C267.25 0.05, 273.63 0, 280 0 C286.37 0, 292.75 0.05, 299.11 0.14 C305.46 0.23, 311.82 0.37, 318.13 0.56 C324.44 0.74, 330.73 0.98, 336.97 1.25 C343.2 1.53, 349.41 1.86, 355.54 2.22 C361.68 2.59, 367.76 3.01, 373.77 3.46 C379.77 3.92, 385.71 4.42, 391.55 4.97 C397.39 5.51, 403.16 6.1, 408.82 6.73 C414.47 7.35, 420.04 8.03, 425.48 8.73 C430.93 9.44, 436.27 10.19, 441.47 10.98 C446.67 11.77, 451.76 12.6, 456.7 13.46 C461.65 14.32, 466.46 15.22, 471.11 16.15 C475.77 17.08, 480.29 18.05, 484.63 19.05 C488.98 20.04, 493.18 21.08, 497.2 22.13 C501.22 23.19, 505.08 24.28, 508.75 25.4 C512.42 26.51, 515.93 27.66, 519.24 28.82 C522.55 29.99, 525.68 31.18, 528.61 32.4 C531.54 33.61, 534.28 34.84, 536.82 36.1 C539.36 37.35, 541.7 38.62, 543.83 39.91 C545.97 41.19, 547.9 42.5, 549.62 43.81 C551.34 45.13, 552.85 46.46, 554.14 47.79 C555.44 49.13, 556.52 50.48, 557.39 51.83 C558.26 53.18, 558.91 54.54, 559.35 55.91 C559.78 57.27, 560 58.64, 560 60" stroke="#1e1e1e" stroke-width="4" fill="none"></path></g><g transform="translate(304 70) rotate(0 52.14453125 16.099999999999994)"><text x="0" y="25.760546874999996" font-family="Helvetica, Segoe UI Emoji" font-size="28px" fill="#1e1e1e" text-anchor="start" style="white-space: pre;" direction="ltr" dominant-baseline="alphabetic">eu client</text></g><g stroke-linecap="round" transform="translate(884 30) rotate(0 280 60)"><path d="M560 60 C560 61.36, 559.78 62.73, 559.35 64.09 C558.91 65.46, 558.26 66.82, 557.39 68.17 C556.52 69.52, 555.44 70.87, 554.14 72.21 C552.85 73.54, 551.34 74.87, 549.62 76.19 C547.9 77.5, 545.97 78.81, 543.83 80.09 C541.7 81.38, 539.36 82.65, 536.82 83.9 C534.28 85.16, 531.54 86.39, 528.61 87.6 C525.68 88.82, 522.55 90.01, 519.24 91.18 C515.93 92.34, 512.42 93.49, 508.75 94.6 C505.08 95.72, 501.22 96.81, 497.2 97.87 C493.18 98.92, 488.98 99.96, 484.63 100.95 C480.29 101.95, 475.77 102.92, 471.11 103.85 C466.46 104.78, 461.65 105.68, 456.7 106.54 C451.76 107.4, 446.67 108.23, 441.47 109.02 C436.27 109.81, 430.93 110.56, 425.48 111.27 C420.04 111.97, 414.47 112.65, 408.82 113.27 C403.16 113.9, 397.39 114.49, 391.55 115.03 C385.71 115.58, 379.77 116.08, 373.77 116.54 C367.76 116.99, 361.68 117.41, 355.54 117.78 C349.41 118.14, 343.2 118.47, 336.97 118.75 C330.73 119.02, 324.44 119.26, 318.13 119.44 C311.82 119.63, 305.46 119.77, 299.11 119.86 C292.75 119.95, 286.37 120, 280 120 C273.63 120, 267.25 119.95, 260.89 119.86 C254.54 119.77, 248.18 119.63, 241.87 119.44 C235.56 119.26, 229.27 119.02, 223.03 118.75 C216.8 118.47, 210.59 118.14, 204.46 117.78 C198.32 117.41, 192.24 116.99, 186.23 116.54 C180.23 116.08, 174.29 115.58, 168.45 115.03 C162.61 114.49, 156.84 113.9, 151.18 113.27 C145.53 112.65, 139.96 111.97, 134.52 111.27 C129.07 110.56, 123.73 109.81, 118.53 109.02 C113.33 108.23, 108.24 107.4, 103.3 106.54 C98.35 105.68, 93.54 104.78, 88.89 103.85 C84.23 102.92, 79.71 101.95, 75.37 100.95 C71.02 99.96, 66.82 98.92, 62.8 97.87 C58.78 96.81, 54.92 95.72, 51.25 94.6 C47.58 93.49, 44.07 92.34, 40.76 91.18 C37.45 90.01, 34.32 88.82, 31.39 87.6 C28.46 86.39, 25.72 85.16, 23.18 83.9 C20.64 82.65, 18.3 81.38, 16.17 80.09 C14.03 78.81, 12.1 77.5, 10.38 76.19 C8.66 74.87, 7.15 73.54, 5.86 72.21 C4.56 70.87, 3.48 69.52, 2.61 68.17 C1.74 66.82, 1.09 65.46, 0.65 64.09 C0.22 62.73, 0 61.36, 0 60 C0 58.64, 0.22 57.27, 0.65 55.91 C1.09 54.54, 1.74 53.18, 2.61 51.83 C3.48 50.48, 4.56 49.13, 5.86 47.79 C7.15 46.46, 8.66 45.13, 10.38 43.81 C12.1 42.5, 14.03 41.19, 16.17 39.91 C18.3 38.62, 20.64 37.35, 23.18 36.1 C25.72 34.84, 28.46 33.61, 31.39 32.4 C34.32 31.18, 37.45 29.99, 40.76 28.82 C44.07 27.66, 47.58 26.51, 51.25 25.4 C54.92 24.28, 58.78 23.19, 62.8 22.13 C66.82 21.08, 71.02 20.04, 75.37 19.05 C79.71 18.05, 84.23 17.08, 88.89 16.15 C93.54 15.22, 98.35 14.32, 103.3 13.46 C108.24 12.6, 113.33 11.77, 118.53 10.98 C123.73 10.19, 129.07 9.44, 134.52 8.73 C139.96 8.03, 145.53 7.35, 151.18 6.73 C156.84 6.1, 162.61 5.51, 168.45 4.97 C174.29 4.42, 180.23 3.92, 186.23 3.46 C192.24 3.01, 198.32 2.59, 204.46 2.22 C210.59 1.86, 216.8 1.53, 223.03 1.25 C229.27 0.98, 235.56 0.74, 241.87 0.56 C248.18 0.37, 254.54 0.23, 260.89 0.14 C267.25 0.05, 273.63 0, 280 0 C286.37 0, 292.75 0.05, 299.11 0.14 C305.46 0.23, 311.82 0.37, 318.13 0.56 C324.44 0.74, 330.73 0.98, 336.97 1.25 C343.2 1.53, 349.41 1.86, 355.54 2.22 C361.68 2.59, 367.76 3.01, 373.77 3.46 C379.77 3.92, 385.71 4.42, 391.55 4.97 C397.39 5.51, 403.16 6.1, 408.82 6.73 C414.47 7.35, 420.04 8.03, 425.48 8.73 C430.93 9.44, 436.27 10.19, 441.47 10.98 C446.67 11.77, 451.76 12.6, 456.7 13.46 C461.65 14.32, 466.46 15.22, 471.11 16.15 C475.77 17.08, 480.29 18.05, 484.63 19.05 C488.98 20.04, 493.18 21.08, 497.2 22.13 C501.22 23.19, 505.08 24.28, 508.75 25.4 C512.42 26.51, 515.93 27.66, 519.24 28.82 C522.55 29.99, 525.68 31.18, 528.61 32.4 C531.54 33.61, 534.28 34.84, 536.82 36.1 C539.36 37.35, 541.7 38.62, 543.83 39.91 C545.97 41.19, 547.9 42.5, 549.62 43.81 C551.34 45.13, 552.85 46.46, 554.14 47.79 C555.44 49.13, 556.52 50.48, 557.39 51.83 C558.26 53.18, 558.91 54.54, 559.35 55.91 C559.78 57.27, 560 58.64, 560 60" stroke="#1e1e1e" stroke-width="4" fill="none"></path></g><g transform="translate(1104 70) rotate(0 51.3583984375 16.099999999999994)"><text x="0" y="25.760546874999996" font-family="Helvetica, Segoe UI Emoji" font-size="28px" fill="#1e1e1e" text-anchor="start" style="white-space: pre;" direction="ltr" dominant-baseline="alphabetic">us client</text></g><g stroke-linecap="round" transform="translate(1684 10) rotate(0 280 60)"><path d="M560 60 C560 61.36, 559.78 62.73, 559.35 64.09 C558.91 65.46, 558.26 66.82, 557.39 68.17 C556.52 69.52, 555.44 70.87, 554.14 72.21 C552.85 73.54, 551.34 74.87, 549.62 76.19 C547.9 77.5, 545.97 78.81, 543.83 80.09 C541.7 81.38, 539.36 82.65, 536.82 83.9 C534.28 85.16, 531.54 86.39, 528.61 87.6 C525.68 88.82, 522.55 90.01, 519.24 91.18 C515.93 92.34, 512.42 93.49, 508.75 94.6 C505.08 95.72, 501.22 96.81, 497.2 97.87 C493.18 98.92, 488.98 99.96, 484.63 100.95 C480.29 101.95, 475.77 102.92, 471.11 103.85 C466.46 104.78, 461.65 105.68, 456.7 106.54 C451.76 107.4, 446.67 108.23, 441.47 109.02 C436.27 109.81, 430.93 110.56, 425.48 111.27 C420.04 111.97, 414.47 112.65, 408.82 113.27 C403.16 113.9, 397.39 114.49, 391.55 115.03 C385.71 115.58, 379.77 116.08, 373.77 116.54 C367.76 116.99, 361.68 117.41, 355.54 117.78 C349.41 118.14, 343.2 118.47, 336.97 118.75 C330.73 119.02, 324.44 119.26, 318.13 119.44 C311.82 119.63, 305.46 119.77, 299.11 119.86 C292.75 119.95, 286.37 120, 280 120 C273.63 120, 267.25 119.95, 260.89 119.86 C254.54 119.77, 248.18 119.63, 241.87 119.44 C235.56 119.26, 229.27 119.02, 223.03 118.75 C216.8 118.47, 210.59 118.14, 204.46 117.78 C198.32 117.41, 192.24 116.99, 186.23 116.54 C180.23 116.08, 174.29 115.58, 168.45 115.03 C162.61 114.49, 156.84 113.9, 151.18 113.27 C145.53 112.65, 139.96 111.97, 134.52 111.27 C129.07 110.56, 123.73 109.81, 118.53 109.02 C113.33 108.23, 108.24 107.4, 103.3 106.54 C98.35 105.68, 93.54 104.78, 88.89 103.85 C84.23 102.92, 79.71 101.95, 75.37 100.95 C71.02 99.96, 66.82 98.92, 62.8 97.87 C58.78 96.81, 54.92 95.72, 51.25 94.6 C47.58 93.49, 44.07 92.34, 40.76 91.18 C37.45 90.01, 34.32 88.82, 31.39 87.6 C28.46 86.39, 25.72 85.16, 23.18 83.9 C20.64 82.65, 18.3 81.38, 16.17 80.09 C14.03 78.81, 12.1 77.5, 10.38 76.19 C8.66 74.87, 7.15 73.54, 5.86 72.21 C4.56 70.87, 3.48 69.52, 2.61 68.17 C1.74 66.82, 1.09 65.46, 0.65 64.09 C0.22 62.73, 0 61.36, 0 60 C0 58.64, 0.22 57.27, 0.65 55.91 C1.09 54.54, 1.74 53.18, 2.61 51.83 C3.48 50.48, 4.56 49.13, 5.86 47.79 C7.15 46.46, 8.66 45.13, 10.38 43.81 C12.1 42.5, 14.03 41.19, 16.17 39.91 C18.3 38.62, 20.64 37.35, 23.18 36.1 C25.72 34.84, 28.46 33.61, 31.39 32.4 C34.32 31.18, 37.45 29.99, 40.76 28.82 C44.07 27.66, 47.58 26.51, 51.25 25.4 C54.92 24.28, 58.78 23.19, 62.8 22.13 C66.82 21.08, 71.02 20.04, 75.37 19.05 C79.71 18.05, 84.23 17.08, 88.89 16.15 C93.54 15.22, 98.35 14.32, 103.3 13.46 C108.24 12.6, 113.33 11.77, 118.53 10.98 C123.73 10.19, 129.07 9.44, 134.52 8.73 C139.96 8.03, 145.53 7.35, 151.18 6.73 C156.84 6.1, 162.61 5.51, 168.45 4.97 C174.29 4.42, 180.23 3.92, 186.23 3.46 C192.24 3.01, 198.32 2.59, 204.46 2.22 C210.59 1.86, 216.8 1.53, 223.03 1.25 C229.27 0.98, 235.56 0.74, 241.87 0.56 C248.18 0.37, 254.54 0.23, 260.89 0.14 C267.25 0.05, 273.63 0, 280 0 C286.37 0, 292.75 0.05, 299.11 0.14 C305.46 0.23, 311.82 0.37, 318.13 0.56 C324.44 0.74, 330.73 0.98, 336.97 1.25 C343.2 1.53, 349.41 1.86, 355.54 2.22 C361.68 2.59, 367.76 3.01, 373.77 3.46 C379.77 3.92, 385.71 4.42, 391.55 4.97 C397.39 5.51, 403.16 6.1, 408.82 6.73 C414.47 7.35, 420.04 8.03, 425.48 8.73 C430.93 9.44, 436.27 10.19, 441.47 10.98 C446.67 11.77, 451.76 12.6, 456.7 13.46 C461.65 14.32, 466.46 15.22, 471.11 16.15 C475.77 17.08, 480.29 18.05, 484.63 19.05 C488.98 20.04, 493.18 21.08, 497.2 22.13 C501.22 23.19, 505.08 24.28, 508.75 25.4 C512.42 26.51, 515.93 27.66, 519.24 28.82 C522.55 29.99, 525.68 31.18, 528.61 32.4 C531.54 33.61, 534.28 34.84, 536.82 36.1 C539.36 37.35, 541.7 38.62, 543.83 39.91 C545.97 41.19, 547.9 42.5, 549.62 43.81 C551.34 45.13, 552.85 46.46, 554.14 47.79 C555.44 49.13, 556.52 50.48, 557.39 51.83 C558.26 53.18, 558.91 54.54, 559.35 55.91 C559.78 57.27, 560 58.64, 560 60" stroke="#1e1e1e" stroke-width="4" fill="none"></path></g><g transform="translate(1924 50) rotate(0 36.572265625 16.099999999999994)"><text x="0" y="25.760546874999996" font-family="Helvetica, Segoe UI Emoji" font-size="28px" fill="#1e1e1e" text-anchor="start" style="white-space: pre;" direction="ltr" dominant-baseline="alphabetic"> client</text></g><g stroke-linecap="round" transform="translate(24 670) rotate(0 1170 100)"><path d="M0 0 L2340 0 L2340 200 L0 200" stroke="none" stroke-width="0" fill="#ffc9c9"></path><path d="M0 0 C469.43 0, 938.86 0, 2340 0 M0 0 C695.9 0, 1391.8 0, 2340 0 M2340 0 C2340 67.97, 2340 135.93, 2340 200 M2340 0 C2340 74.51, 2340 149.03, 2340 200 M2340 200 C1801.91 200, 1263.83 200, 0 200 M2340 200 C1771.2 200, 1202.39 200, 0 200 M0 200 C0 122.02, 0 44.04, 0 0 M0 200 C0 128.13, 0 56.25, 0 0" stroke="#1e1e1e" stroke-width="4" fill="none"></path></g><g transform="translate(62.57142857142867 677.7857142857143) rotate(0 28.7861328125 16.100000000000023)"><text x="0" y="25.760546874999996" font-family="Helvetica, Segoe UI Emoji" font-size="28px" fill="#1e1e1e" text-anchor="start" style="white-space: pre;" direction="ltr" dominant-baseline="alphabetic">citus</text></g><g stroke-linecap="round" transform="translate(224 610) rotate(0 140 30)"><path d="M0 0 C75.08 0, 150.15 0, 280 0 M0 0 C92.98 0, 185.97 0, 280 0 M280 0 C280 18.11, 280 36.22, 280 60 M280 0 C280 18.55, 280 37.11, 280 60 M280 60 C175.78 60, 71.55 60, 0 60 M280 60 C215.85 60, 151.7 60, 0 60 M0 60 C0 41.96, 0 23.93, 0 0 M0 60 C0 47.86, 0 35.72, 0 0" stroke="#1e1e1e" stroke-width="4" fill="none"></path></g><g transform="translate(264 617.7857142857143) rotate(0 70.041015625 16.100000000000023)"><text x="0" y="25.760546874999996" font-family="Helvetica, Segoe UI Emoji" font-size="28px" fill="#1e1e1e" text-anchor="start" style="white-space: pre;" direction="ltr" dominant-baseline="alphabetic">coordinator</text></g><g stroke-linecap="round" transform="translate(84 730) rotate(0 80 50)"><path d="M0 0 L160 0 L160 100 L0 100" stroke="none" stroke-width="0" fill="#a5d8ff"></path><path d="M0 0 C48.44 0, 96.89 0, 160 0 M0 0 C62.16 0, 124.32 0, 160 0 M160 0 C160 33.77, 160 67.55, 160 100 M160 0 C160 39.28, 160 78.55, 160 100 M160 100 C101.8 100, 43.59 100, 0 100 M160 100 C106.39 100, 52.78 100, 0 100 M0 100 C0 79.09, 0 58.18, 0 0 M0 100 C0 79.36, 0 58.72, 0 0" stroke="#1e1e1e" stroke-width="4" fill="none"></path></g><g transform="translate(108.28571428571422 757.7857142857143) rotate(0 53.6826171875 16.099999999999966)"><text x="0" y="25.760546874999996" font-family="Helvetica, Segoe UI Emoji" font-size="28px" fill="#1e1e1e" text-anchor="start" style="white-space: pre;" direction="ltr" dominant-baseline="alphabetic">worker 1</text></g><g stroke-linecap="round" transform="translate(424 730) rotate(0 80 50)"><path d="M0 0 L160 0 L160 100 L0 100" stroke="none" stroke-width="0" fill="#a5d8ff"></path><path d="M0 0 C51.91 0, 103.81 0, 160 0 M0 0 C56.22 0, 112.45 0, 160 0 M160 0 C160 39.7, 160 79.41, 160 100 M160 0 C160 37.38, 160 74.77, 160 100 M160 100 C115.56 100, 71.12 100, 0 100 M160 100 C119.93 100, 79.86 100, 0 100 M0 100 C0 70.28, 0 40.56, 0 0 M0 100 C0 76.76, 0 53.52, 0 0" stroke="#1e1e1e" stroke-width="4" fill="none"></path></g><g transform="translate(448.2857142857142 757.7857142857142) rotate(0 53.6826171875 16.100000000000023)"><text x="0" y="25.760546874999996" font-family="Helvetica, Segoe UI Emoji" font-size="28px" fill="#1e1e1e" text-anchor="start" style="white-space: pre;" direction="ltr" dominant-baseline="alphabetic">worker 2</text></g><g stroke-linecap="round" transform="translate(884 730) rotate(0 80 50)"><path d="M0 0 L160 0 L160 100 L0 100" stroke="none" stroke-width="0" fill="#a5d8ff"></path><path d="M0 0 C41.97 0, 83.93 0, 160 0 M0 0 C54.11 0, 108.21 0, 160 0 M160 0 C160 35.68, 160 71.35, 160 100 M160 0 C160 33.44, 160 66.88, 160 100 M160 100 C102.52 100, 45.05 100, 0 100 M160 100 C113.1 100, 66.19 100, 0 100 M0 100 C0 64.73, 0 29.47, 0 0 M0 100 C0 72.43, 0 44.85, 0 0" stroke="#1e1e1e" stroke-width="4" fill="none"></path></g><g transform="translate(908.2857142857142 757.7857142857142) rotate(0 53.6826171875 16.100000000000023)"><text x="0" y="25.760546874999996" font-family="Helvetica, Segoe UI Emoji" font-size="28px" fill="#1e1e1e" text-anchor="start" style="white-space: pre;" direction="ltr" dominant-baseline="alphabetic">worker 3</text></g><g stroke-linecap="round" transform="translate(1244 730) rotate(0 80 50)"><path d="M0 0 L160 0 L160 100 L0 100" stroke="none" stroke-width="0" fill="#a5d8ff"></path><path d="M0 0 C36.79 0, 73.58 0, 160 0 M0 0 C38.89 0, 77.79 0, 160 0 M160 0 C160 38.99, 160 77.98, 160 100 M160 0 C160 35.94, 160 71.87, 160 100 M160 100 C105.52 100, 51.03 100, 0 100 M160 100 C121.81 100, 83.63 100, 0 100 M0 100 C0 63.29, 0 26.57, 0 0 M0 100 C0 69.75, 0 39.51, 0 0" stroke="#1e1e1e" stroke-width="4" fill="none"></path></g><g transform="translate(1268.2857142857142 757.7857142857142) rotate(0 53.6826171875 16.100000000000023)"><text x="0" y="25.760546874999996" font-family="Helvetica, Segoe UI Emoji" font-size="28px" fill="#1e1e1e" text-anchor="start" style="white-space: pre;" direction="ltr" dominant-baseline="alphabetic">worker 4</text></g><g stroke-linecap="round" transform="translate(1244 730) rotate(0 80 50)"><path d="M0 0 L160 0 L160 100 L0 100" stroke="none" stroke-width="0" fill="#a5d8ff"></path><path d="M0 0 C59.56 0, 119.11 0, 160 0 M0 0 C36.66 0, 73.31 0, 160 0 M160 0 C160 30.06, 160 60.12, 160 100 M160 0 C160 20.23, 160 40.46, 160 100 M160 100 C98.37 100, 36.74 100, 0 100 M160 100 C107.01 100, 54.02 100, 0 100 M0 100 C0 63.64, 0 27.28, 0 0 M0 100 C0 65.25, 0 30.51, 0 0" stroke="#1e1e1e" stroke-width="4" fill="none"></path></g><g transform="translate(1268.2857142857142 757.7857142857142) rotate(0 53.6826171875 16.100000000000023)"><text x="0" y="25.760546874999996" font-family="Helvetica, Segoe UI Emoji" font-size="28px" fill="#1e1e1e" text-anchor="start" style="white-space: pre;" direction="ltr" dominant-baseline="alphabetic">worker 4</text></g><g stroke-linecap="round" transform="translate(1704 730) rotate(0 80 50)"><path d="M0 0 L160 0 L160 100 L0 100" stroke="none" stroke-width="0" fill="#a5d8ff"></path><path d="M0 0 C42.43 0, 84.86 0, 160 0 M0 0 C52.48 0, 104.96 0, 160 0 M160 0 C160 32.44, 160 64.88, 160 100 M160 0 C160 28.56, 160 57.12, 160 100 M160 100 C113.91 100, 67.81 100, 0 100 M160 100 C114.6 100, 69.19 100, 0 100 M0 100 C0 60.37, 0 20.74, 0 0 M0 100 C0 68.56, 0 37.13, 0 0" stroke="#1e1e1e" stroke-width="4" fill="none"></path></g><g transform="translate(1728.2857142857142 757.7857142857142) rotate(0 53.6826171875 16.100000000000023)"><text x="0" y="25.760546874999996" font-family="Helvetica, Segoe UI Emoji" font-size="28px" fill="#1e1e1e" text-anchor="start" style="white-space: pre;" direction="ltr" dominant-baseline="alphabetic">worker 5</text></g><g stroke-linecap="round" transform="translate(2104 730) rotate(0 80 50)"><path d="M0 0 L160 0 L160 100 L0 100" stroke="none" stroke-width="0" fill="#a5d8ff"></path><path d="M0 0 C50.59 0, 101.18 0, 160 0 M0 0 C38.44 0, 76.87 0, 160 0 M160 0 C160 32.79, 160 65.58, 160 100 M160 0 C160 30.03, 160 60.07, 160 100 M160 100 C115.96 100, 71.92 100, 0 100 M160 100 C115.5 100, 71.01 100, 0 100 M0 100 C0 64.94, 0 29.88, 0 0 M0 100 C0 62.45, 0 24.89, 0 0" stroke="#1e1e1e" stroke-width="4" fill="none"></path></g><g transform="translate(2128.285714285714 757.7857142857142) rotate(0 53.6826171875 16.100000000000023)"><text x="0" y="25.760546874999996" font-family="Helvetica, Segoe UI Emoji" font-size="28px" fill="#1e1e1e" text-anchor="start" style="white-space: pre;" direction="ltr" dominant-baseline="alphabetic">worker 6</text></g><g stroke-linecap="round"><g transform="translate(1164 510) rotate(0 -100 110)"><path d="M0 0 C-72.75 80.02, -145.49 160.04, -200 220 M0 0 C-71.14 78.26, -142.29 156.52, -200 220" stroke="#1e1e1e" stroke-width="4" fill="none"></path></g><g transform="translate(1164 510) rotate(0 -100 110)"><path d="M-190.52 196.87 C-193.97 205.28, -197.42 213.69, -200 220 M-190.52 196.87 C-193.89 205.09, -197.27 213.32, -200 220" stroke="#1e1e1e" stroke-width="4" fill="none"></path></g><g transform="translate(1164 510) rotate(0 -100 110)"><path d="M-177.87 208.37 C-185.92 212.6, -193.97 216.83, -200 220 M-177.87 208.37 C-185.74 212.51, -193.61 216.64, -200 220" stroke="#1e1e1e" stroke-width="4" fill="none"></path></g></g><mask></mask><g stroke-linecap="round"><g transform="translate(344 510) rotate(0 0 50)"><path d="M0 0 C0 29.02, 0 58.05, 0 100 M0 0 C0 26.02, 0 52.03, 0 100" stroke="#1e1e1e" stroke-width="4" fill="none"></path></g><g transform="translate(344 510) rotate(0 0 50)"><path d="M-8.55 76.51 C-6.07 83.33, -3.59 90.14, 0 100 M-8.55 76.51 C-6.33 82.62, -4.1 88.73, 0 100" stroke="#1e1e1e" stroke-width="4" fill="none"></path></g><g transform="translate(344 510) rotate(0 0 50)"><path d="M8.55 76.51 C6.07 83.33, 3.59 90.14, 0 100 M8.55 76.51 C6.33 82.62, 4.1 88.73, 0 100" stroke="#1e1e1e" stroke-width="4" fill="none"></path></g></g><mask></mask><g stroke-linecap="round"><g transform="translate(2004 510) rotate(0 -110 110)"><path d="M0 0 C-75.49 75.49, -150.99 150.99, -220 220 M0 0 C-45.42 45.42, -90.85 90.85, -220 220" stroke="#1e1e1e" stroke-width="4" fill="none"></path></g><g transform="translate(2004 510) rotate(0 -110 110)"><path d="M-209.43 197.34 C-213.06 205.12, -216.69 212.89, -220 220 M-209.43 197.34 C-211.62 202.02, -213.8 206.7, -220 220" stroke="#1e1e1e" stroke-width="4" fill="none"></path></g><g transform="translate(2004 510) rotate(0 -110 110)"><path d="M-197.34 209.43 C-205.12 213.06, -212.89 216.69, -220 220 M-197.34 209.43 C-202.02 211.62, -206.7 213.8, -220 220" stroke="#1e1e1e" stroke-width="4" fill="none"></path></g></g><mask></mask></svg>