<svg version="1.1" xmlns="http://www.w3.org/2000/svg" viewBox="0 0 2394 656" width="7182" height="1968">
  <!-- svg-source:excalidraw -->
  
  <defs>
    <style class="style-fonts">
      @font-face {
        font-family: "Virgil";
        src: url("https://excalidraw.com/Virgil.woff2");
      }
      @font-face {
        font-family: "Cascadia";
        src: url("https://excalidraw.com/Cascadia.woff2");
      }
      @font-face {
        font-family: "Assistant";
        src: url("https://excalidraw.com/Assistant-Regular.woff2");
      }
    </style>
    
  </defs>
  <g stroke-linecap="round" transform="translate(10 11) rotate(0 375.5 314)"><path d="M0 0 C297.33 0, 594.66 0, 751 0 M0 0 C219.24 0, 438.48 0, 751 0 M751 0 C751 182.61, 751 365.22, 751 628 M751 0 C751 179.85, 751 359.7, 751 628 M751 628 C457.52 628, 164.03 628, 0 628 M751 628 C527.1 628, 303.21 628, 0 628 M0 628 C0 412.13, 0 196.26, 0 0 M0 628 C0 385.47, 0 142.94, 0 0" stroke="#1e1e1e" stroke-width="4" fill="none"></path></g><g transform="translate(46 40) rotate(0 92.626953125 16.100000000000023)"><text x="0" y="25.760546874999996" font-family="Helvetica, Segoe UI Emoji" font-size="28px" fill="#1e1e1e" text-anchor="start" style="white-space: pre;" direction="ltr" dominant-baseline="alphabetic">region/laptop 1</text></g><g stroke-linecap="round" transform="translate(819.5 10) rotate(0 375.5 314)"><path d="M0 0 C167.64 0, 335.29 0, 751 0 M0 0 C179.21 0, 358.42 0, 751 0 M751 0 C751 228.52, 751 457.04, 751 628 M751 0 C751 235.59, 751 471.18, 751 628 M751 628 C488.01 628, 225.02 628, 0 628 M751 628 C565.76 628, 380.52 628, 0 628 M0 628 C0 450.73, 0 273.45, 0 0 M0 628 C0 488.37, 0 348.74, 0 0" stroke="#1e1e1e" stroke-width="4" fill="none"></path></g><g transform="translate(855.5 39) rotate(0 92.626953125 16.100000000000023)"><text x="0" y="25.760546874999996" font-family="Helvetica, Segoe UI Emoji" font-size="28px" fill="#1e1e1e" text-anchor="start" style="white-space: pre;" direction="ltr" dominant-baseline="alphabetic">region/laptop 2</text></g><g stroke-linecap="round" transform="translate(1624 18) rotate(0 375.5 314)"><path d="M0 0 C250.87 0, 501.74 0, 751 0 M0 0 C180.52 0, 361.04 0, 751 0 M751 0 C751 209.03, 751 418.06, 751 628 M751 0 C751 248.97, 751 497.93, 751 628 M751 628 C600.34 628, 449.68 628, 0 628 M751 628 C527.66 628, 304.31 628, 0 628 M0 628 C0 414.59, 0 201.18, 0 0 M0 628 C0 394.03, 0 160.06, 0 0" stroke="#1e1e1e" stroke-width="4" fill="none"></path></g><g transform="translate(1664 53) rotate(0 92.626953125 16.100000000000023)"><text x="0" y="25.760546874999996" font-family="Helvetica, Segoe UI Emoji" font-size="28px" fill="#1e1e1e" text-anchor="start" style="white-space: pre;" direction="ltr" dominant-baseline="alphabetic">region/laptop 3</text></g><g stroke-linecap="round" transform="translate(1784 138) rotate(0 220 50)"><path d="M0 0 C174.69 0, 349.37 0, 440 0 M0 0 C142.79 0, 285.58 0, 440 0 M440 0 C440 23.81, 440 47.62, 440 100 M440 0 C440 31.04, 440 62.09, 440 100 M440 100 C301.4 100, 162.79 100, 0 100 M440 100 C341.43 100, 242.85 100, 0 100 M0 100 C0 76.28, 0 52.56, 0 0 M0 100 C0 62.49, 0 24.98, 0 0" stroke="#1e1e1e" stroke-width="4" fill="none"></path></g><g transform="translate(1804 164.3571428571429) rotate(0 50.572265625 16.100000000000023)"><text x="0" y="25.760546874999996" font-family="Helvetica, Segoe UI Emoji" font-size="28px" fill="#1e1e1e" text-anchor="start" style="white-space: pre;" direction="ltr" dominant-baseline="alphabetic">server 3</text></g><g stroke-linecap="round" transform="translate(44 398) rotate(0 1170 100)"><path d="M0 0 L2340 0 L2340 200 L0 200" stroke="none" stroke-width="0" fill="#ffc9c9"></path><path d="M0 0 C469.43 0, 938.86 0, 2340 0 M0 0 C695.9 0, 1391.8 0, 2340 0 M2340 0 C2340 67.97, 2340 135.93, 2340 200 M2340 0 C2340 74.51, 2340 149.03, 2340 200 M2340 200 C1801.91 200, 1263.83 200, 0 200 M2340 200 C1771.2 200, 1202.39 200, 0 200 M0 200 C0 122.02, 0 44.04, 0 0 M0 200 C0 128.13, 0 56.25, 0 0" stroke="#1e1e1e" stroke-width="4" fill="none"></path></g><g transform="translate(62.57142857142867 405.78571428571433) rotate(0 28.7861328125 16.100000000000023)"><text x="0" y="25.760546874999996" font-family="Helvetica, Segoe UI Emoji" font-size="28px" fill="#1e1e1e" text-anchor="start" style="white-space: pre;" direction="ltr" dominant-baseline="alphabetic">citus</text></g><g stroke-linecap="round" transform="translate(984 138) rotate(0 220 50)"><path d="M0 0 C133.37 0, 266.75 0, 440 0 M0 0 C144.51 0, 289.03 0, 440 0 M440 0 C440 31.89, 440 63.78, 440 100 M440 0 C440 30, 440 60.01, 440 100 M440 100 C341.02 100, 242.04 100, 0 100 M440 100 C288.18 100, 136.35 100, 0 100 M0 100 C0 79.78, 0 59.56, 0 0 M0 100 C0 61.01, 0 22.02, 0 0" stroke="#1e1e1e" stroke-width="4" fill="none"></path></g><g transform="translate(1004 164.3571428571429) rotate(0 50.572265625 16.100000000000023)"><text x="0" y="25.760546874999996" font-family="Helvetica, Segoe UI Emoji" font-size="28px" fill="#1e1e1e" text-anchor="start" style="white-space: pre;" direction="ltr" dominant-baseline="alphabetic">server 2</text></g><g stroke-linecap="round" transform="translate(204 138) rotate(0 220 50)"><path d="M0 0 C165.81 0, 331.63 0, 440 0 M0 0 C111.19 0, 222.37 0, 440 0 M440 0 C440 38.78, 440 77.55, 440 100 M440 0 C440 34.31, 440 68.61, 440 100 M440 100 C286.75 100, 133.51 100, 0 100 M440 100 C313.18 100, 186.37 100, 0 100 M0 100 C0 75.43, 0 50.87, 0 0 M0 100 C0 78.37, 0 56.75, 0 0" stroke="#1e1e1e" stroke-width="4" fill="none"></path></g><g transform="translate(224 158) rotate(0 50.572265625 16.100000000000023)"><text x="0" y="25.760546874999996" font-family="Helvetica, Segoe UI Emoji" font-size="28px" fill="#1e1e1e" text-anchor="start" style="white-space: pre;" direction="ltr" dominant-baseline="alphabetic">server 1</text></g><g stroke-linecap="round" transform="translate(184 458) rotate(0 220 40)"><path d="M20 0 C152.97 0, 285.93 0, 420 0 C433.33 0, 440 6.67, 440 20 C440 33.99, 440 47.98, 440 60 C440 73.33, 433.33 80, 420 80 C276.41 80, 132.82 80, 20 80 C6.67 80, 0 73.33, 0 60 C0 44.44, 0 28.88, 0 20 C0 6.67, 6.67 0, 20 0" stroke="none" stroke-width="0" fill="#a5d8ff"></path><path d="M20 0 C121.17 0, 222.34 0, 420 0 M20 0 C178.65 0, 337.3 0, 420 0 M420 0 C433.33 0, 440 6.67, 440 20 M420 0 C433.33 0, 440 6.67, 440 20 M440 20 C440 33.8, 440 47.6, 440 60 M440 20 C440 31.43, 440 42.86, 440 60 M440 60 C440 73.33, 433.33 80, 420 80 M440 60 C440 73.33, 433.33 80, 420 80 M420 80 C300.15 80, 180.31 80, 20 80 M420 80 C284.69 80, 149.38 80, 20 80 M20 80 C6.67 80, 0 73.33, 0 60 M20 80 C6.67 80, 0 73.33, 0 60 M0 60 C0 46.28, 0 32.56, 0 20 M0 60 C0 49.31, 0 38.62, 0 20 M0 20 C0 6.67, 6.67 0, 20 0 M0 20 C0 6.67, 6.67 0, 20 0" stroke="#1e1e1e" stroke-width="4" fill="none"></path></g><g transform="translate(208.6904296875 481.9) rotate(0 195.3095703125 16.099999999999966)"><text x="195.3095703125" y="25.760546874999996" font-family="Helvetica, Segoe UI Emoji" font-size="28px" fill="#1e1e1e" text-anchor="middle" style="white-space: pre;" direction="ltr" dominant-baseline="alphabetic">DB1 (coordinator and worker 1)</text></g><g stroke-linecap="round" transform="translate(984 458) rotate(0 220 40)"><path d="M20 0 C160.97 0, 301.93 0, 420 0 C433.33 0, 440 6.67, 440 20 C440 35.73, 440 51.46, 440 60 C440 73.33, 433.33 80, 420 80 C261.4 80, 102.79 80, 20 80 C6.67 80, 0 73.33, 0 60 C0 50.97, 0 41.94, 0 20 C0 6.67, 6.67 0, 20 0" stroke="none" stroke-width="0" fill="#a5d8ff"></path><path d="M20 0 C150.47 0, 280.94 0, 420 0 M20 0 C160.75 0, 301.5 0, 420 0 M420 0 C433.33 0, 440 6.67, 440 20 M420 0 C433.33 0, 440 6.67, 440 20 M440 20 C440 32.53, 440 45.06, 440 60 M440 20 C440 34.01, 440 48.01, 440 60 M440 60 C440 73.33, 433.33 80, 420 80 M440 60 C440 73.33, 433.33 80, 420 80 M420 80 C315.98 80, 211.96 80, 20 80 M420 80 C289.87 80, 159.74 80, 20 80 M20 80 C6.67 80, 0 73.33, 0 60 M20 80 C6.67 80, 0 73.33, 0 60 M0 60 C0 44.91, 0 29.81, 0 20 M0 60 C0 44.94, 0 29.88, 0 20 M0 20 C0 6.67, 6.67 0, 20 0 M0 20 C0 6.67, 6.67 0, 20 0" stroke="#1e1e1e" stroke-width="4" fill="none"></path></g><g transform="translate(1109.869140625 481.9) rotate(0 94.130859375 16.099999999999966)"><text x="94.130859375" y="25.760546874999996" font-family="Helvetica, Segoe UI Emoji" font-size="28px" fill="#1e1e1e" text-anchor="middle" style="white-space: pre;" direction="ltr" dominant-baseline="alphabetic">DB2 (worker 2)</text></g><g transform="translate(524 18) rotate(0 86.76171875 16.100000000000023)"><text x="0" y="25.760546874999996" font-family="Helvetica, Segoe UI Emoji" font-size="28px" fill="#1e1e1e" text-anchor="start" style="white-space: pre;" direction="ltr" dominant-baseline="alphabetic">DNS=neimhin</text></g><g transform="translate(1324 18) rotate(0 63.4169921875 16.100000000000023)"><text x="0" y="25.760546874999996" font-family="Helvetica, Segoe UI Emoji" font-size="28px" fill="#1e1e1e" text-anchor="start" style="white-space: pre;" direction="ltr" dominant-baseline="alphabetic">DNS=cian</text></g><g transform="translate(2124 18) rotate(0 64.203125 16.100000000000023)"><text x="0" y="25.760546874999996" font-family="Helvetica, Segoe UI Emoji" font-size="28px" fill="#1e1e1e" text-anchor="start" style="white-space: pre;" direction="ltr" dominant-baseline="alphabetic">DNS=qiao</text></g><g stroke-linecap="round" transform="translate(1804 458) rotate(0 220 40)"><path d="M20 0 C151.35 0, 282.69 0, 420 0 C433.33 0, 440 6.67, 440 20 C440 28.68, 440 37.36, 440 60 C440 73.33, 433.33 80, 420 80 C273.12 80, 126.23 80, 20 80 C6.67 80, 0 73.33, 0 60 C0 51.57, 0 43.14, 0 20 C0 6.67, 6.67 0, 20 0" stroke="none" stroke-width="0" fill="#a5d8ff"></path><path d="M20 0 C169.47 0, 318.94 0, 420 0 M20 0 C150.33 0, 280.66 0, 420 0 M420 0 C433.33 0, 440 6.67, 440 20 M420 0 C433.33 0, 440 6.67, 440 20 M440 20 C440 31.01, 440 42.02, 440 60 M440 20 C440 34.11, 440 48.21, 440 60 M440 60 C440 73.33, 433.33 80, 420 80 M440 60 C440 73.33, 433.33 80, 420 80 M420 80 C308.7 80, 197.39 80, 20 80 M420 80 C291.76 80, 163.53 80, 20 80 M20 80 C6.67 80, 0 73.33, 0 60 M20 80 C6.67 80, 0 73.33, 0 60 M0 60 C0 45.59, 0 31.19, 0 20 M0 60 C0 49.34, 0 38.67, 0 20 M0 20 C0 6.67, 6.67 0, 20 0 M0 20 C0 6.67, 6.67 0, 20 0" stroke="#1e1e1e" stroke-width="4" fill="none"></path></g><g transform="translate(1929.869140625 481.9) rotate(0 94.130859375 16.099999999999966)"><text x="94.130859375" y="25.760546874999996" font-family="Helvetica, Segoe UI Emoji" font-size="28px" fill="#1e1e1e" text-anchor="middle" style="white-space: pre;" direction="ltr" dominant-baseline="alphabetic">DB3 (worker 3)</text></g><g stroke-linecap="round"><g transform="translate(624 498) rotate(0 180 0)"><path d="M0 0 C60 0, 300 0, 360 0 M0 0 C60 0, 300 0, 360 0" stroke="#1e1e1e" stroke-width="4" fill="none"></path></g><g transform="translate(624 498) rotate(0 180 0)"><path d="M336.51 8.55 C345.78 5.18, 355.04 1.8, 360 0 M336.51 8.55 C343.33 6.07, 350.15 3.59, 360 0" stroke="#1e1e1e" stroke-width="4" fill="none"></path></g><g transform="translate(624 498) rotate(0 180 0)"><path d="M336.51 -8.55 C345.78 -5.18, 355.04 -1.8, 360 0 M336.51 -8.55 C343.33 -6.07, 350.15 -3.59, 360 0" stroke="#1e1e1e" stroke-width="4" fill="none"></path></g></g><mask></mask><g stroke-linecap="round"><g transform="translate(964 498) rotate(0 -170 0)"><path d="M0 0 C-56.67 0, -283.33 0, -340 0 M0 0 C-56.67 0, -283.33 0, -340 0" stroke="#1e1e1e" stroke-width="4" fill="none"></path></g><g transform="translate(964 498) rotate(0 -170 0)"><path d="M-316.51 -8.55 C-321.41 -6.76, -326.32 -4.98, -340 0 M-316.51 -8.55 C-325.02 -5.45, -333.52 -2.36, -340 0" stroke="#1e1e1e" stroke-width="4" fill="none"></path></g><g transform="translate(964 498) rotate(0 -170 0)"><path d="M-316.51 8.55 C-321.41 6.76, -326.32 4.98, -340 0 M-316.51 8.55 C-325.02 5.45, -333.52 2.36, -340 0" stroke="#1e1e1e" stroke-width="4" fill="none"></path></g></g><mask></mask><g stroke-linecap="round"><g transform="translate(1804 498) rotate(0 -190 0)"><path d="M0 0 C-63.33 0, -316.67 0, -380 0 M0 0 C-63.33 0, -316.67 0, -380 0" stroke="#1e1e1e" stroke-width="4" fill="none"></path></g><g transform="translate(1804 498) rotate(0 -190 0)"><path d="M-356.51 -8.55 C-361.94 -6.57, -367.38 -4.59, -380 0 M-356.51 -8.55 C-361.59 -6.7, -366.68 -4.85, -380 0" stroke="#1e1e1e" stroke-width="4" fill="none"></path></g><g transform="translate(1804 498) rotate(0 -190 0)"><path d="M-356.51 8.55 C-361.94 6.57, -367.38 4.59, -380 0 M-356.51 8.55 C-361.59 6.7, -366.68 4.85, -380 0" stroke="#1e1e1e" stroke-width="4" fill="none"></path></g></g><mask></mask><g stroke-linecap="round"><g transform="translate(1444 498) rotate(0 180 0)"><path d="M0 0 C60 0, 300 0, 360 0 M0 0 C60 0, 300 0, 360 0" stroke="#1e1e1e" stroke-width="4" fill="none"></path></g><g transform="translate(1444 498) rotate(0 180 0)"><path d="M336.51 8.55 C344.01 5.82, 351.5 3.09, 360 0 M336.51 8.55 C345.53 5.27, 354.56 1.98, 360 0" stroke="#1e1e1e" stroke-width="4" fill="none"></path></g><g transform="translate(1444 498) rotate(0 180 0)"><path d="M336.51 -8.55 C344.01 -5.82, 351.5 -3.09, 360 0 M336.51 -8.55 C345.53 -5.27, 354.56 -1.98, 360 0" stroke="#1e1e1e" stroke-width="4" fill="none"></path></g></g><mask></mask><g stroke-linecap="round"><g transform="translate(1804 578) rotate(180 -599.9999999999999 -20)"><path d="M0 0 C-101.69 -6.67, -410.17 -40, -610.17 -40 C-810.17 -40, -1101.69 -6.67, -1200 0 M0 0 C-101.69 -6.67, -410.17 -40, -610.17 -40 C-810.17 -40, -1101.69 -6.67, -1200 0" stroke="#1e1e1e" stroke-width="4" fill="none"></path></g><g transform="translate(1804 578) rotate(180 -599.9999999999999 -20)"><path d="M-1177.34 -10.56 C-1184.82 -7.07, -1192.31 -3.58, -1200 0 M-1177.34 -10.56 C-1182.64 -8.09, -1187.94 -5.62, -1200 0" stroke="#1e1e1e" stroke-width="4" fill="none"></path></g><g transform="translate(1804 578) rotate(180 -599.9999999999999 -20)"><path d="M-1175.85 6.48 C-1183.83 4.34, -1191.8 2.2, -1200 0 M-1175.85 6.48 C-1181.5 4.96, -1187.15 3.45, -1200 0" stroke="#1e1e1e" stroke-width="4" fill="none"></path></g></g><mask></mask><g stroke-linecap="round"><g transform="translate(1804 538) rotate(0 -600 20)"><path d="M0 0 C-100 6.67, -400 40, -600 40 C-800 40, -1100 6.67, -1200 0 M0 0 C-100 6.67, -400 40, -600 40 C-800 40, -1100 6.67, -1200 0" stroke="#1e1e1e" stroke-width="4" fill="none"></path></g><g transform="translate(1804 538) rotate(0 -600 20)"><path d="M-1175.87 -6.53 C-1183.17 -4.55, -1190.48 -2.57, -1200 0 M-1175.87 -6.53 C-1185.32 -3.97, -1194.78 -1.41, -1200 0" stroke="#1e1e1e" stroke-width="4" fill="none"></path></g><g transform="translate(1804 538) rotate(0 -600 20)"><path d="M-1177.32 10.51 C-1184.18 7.33, -1191.05 4.15, -1200 0 M-1177.32 10.51 C-1186.21 6.39, -1195.09 2.27, -1200 0" stroke="#1e1e1e" stroke-width="4" fill="none"></path></g></g><mask></mask><g stroke-linecap="round"><g transform="translate(404 238) rotate(0 0 110)"><path d="M0 0 C0 36.67, 0 183.33, 0 220 M0 0 C0 36.67, 0 183.33, 0 220" stroke="#1e1e1e" stroke-width="4" fill="none"></path></g><g transform="translate(404 238) rotate(0 0 110)"><path d="M-8.55 196.51 C-5.68 204.39, -2.81 212.27, 0 220 M-8.55 196.51 C-6.37 202.5, -4.19 208.49, 0 220" stroke="#1e1e1e" stroke-width="4" fill="none"></path></g><g transform="translate(404 238) rotate(0 0 110)"><path d="M8.55 196.51 C5.68 204.39, 2.81 212.27, 0 220 M8.55 196.51 C6.37 202.5, 4.19 208.49, 0 220" stroke="#1e1e1e" stroke-width="4" fill="none"></path></g></g><mask></mask><g stroke-linecap="round"><g transform="translate(404 458) rotate(0 0 -110)"><path d="M0 0 C0 -36.67, 0 -183.33, 0 -220 M0 0 C0 -36.67, 0 -183.33, 0 -220" stroke="#1e1e1e" stroke-width="4" fill="none"></path></g><g transform="translate(404 458) rotate(0 0 -110)"><path d="M8.55 -196.51 C5.96 -203.63, 3.36 -210.76, 0 -220 M8.55 -196.51 C6.84 -201.21, 5.13 -205.91, 0 -220" stroke="#1e1e1e" stroke-width="4" fill="none"></path></g><g transform="translate(404 458) rotate(0 0 -110)"><path d="M-8.55 -196.51 C-5.96 -203.63, -3.36 -210.76, 0 -220 M-8.55 -196.51 C-6.84 -201.21, -5.13 -205.91, 0 -220" stroke="#1e1e1e" stroke-width="4" fill="none"></path></g></g><mask></mask><g stroke-linecap="round"><g transform="translate(1204 458) rotate(0 0 -110)"><path d="M0 0 C0 -36.67, 0 -183.33, 0 -220 M0 0 C0 -36.67, 0 -183.33, 0 -220" stroke="#1e1e1e" stroke-width="4" fill="none"></path></g><g transform="translate(1204 458) rotate(0 0 -110)"><path d="M8.55 -196.51 C5.74 -204.22, 2.94 -211.93, 0 -220 M8.55 -196.51 C5.14 -205.88, 1.73 -215.26, 0 -220" stroke="#1e1e1e" stroke-width="4" fill="none"></path></g><g transform="translate(1204 458) rotate(0 0 -110)"><path d="M-8.55 -196.51 C-5.74 -204.22, -2.94 -211.93, 0 -220 M-8.55 -196.51 C-5.14 -205.88, -1.73 -215.26, 0 -220" stroke="#1e1e1e" stroke-width="4" fill="none"></path></g></g><mask></mask><g stroke-linecap="round"><g transform="translate(1204 238) rotate(0 0 110)"><path d="M0 0 C0 36.67, 0 183.33, 0 220 M0 0 C0 36.67, 0 183.33, 0 220" stroke="#1e1e1e" stroke-width="4" fill="none"></path></g><g transform="translate(1204 238) rotate(0 0 110)"><path d="M-8.55 196.51 C-6.62 201.82, -4.69 207.13, 0 220 M-8.55 196.51 C-6.53 202.06, -4.51 207.62, 0 220" stroke="#1e1e1e" stroke-width="4" fill="none"></path></g><g transform="translate(1204 238) rotate(0 0 110)"><path d="M8.55 196.51 C6.62 201.82, 4.69 207.13, 0 220 M8.55 196.51 C6.53 202.06, 4.51 207.62, 0 220" stroke="#1e1e1e" stroke-width="4" fill="none"></path></g></g><mask></mask><g stroke-linecap="round"><g transform="translate(2024 238) rotate(0 0 110)"><path d="M0 0 C0 36.67, 0 183.33, 0 220 M0 0 C0 36.67, 0 183.33, 0 220" stroke="#1e1e1e" stroke-width="4" fill="none"></path></g><g transform="translate(2024 238) rotate(0 0 110)"><path d="M-8.55 196.51 C-5.23 205.64, -1.9 214.77, 0 220 M-8.55 196.51 C-6.09 203.26, -3.63 210.02, 0 220" stroke="#1e1e1e" stroke-width="4" fill="none"></path></g><g transform="translate(2024 238) rotate(0 0 110)"><path d="M8.55 196.51 C5.23 205.64, 1.9 214.77, 0 220 M8.55 196.51 C6.09 203.26, 3.63 210.02, 0 220" stroke="#1e1e1e" stroke-width="4" fill="none"></path></g></g><mask></mask><g stroke-linecap="round"><g transform="translate(2024 458) rotate(0 0 -110)"><path d="M0 0 C0 -36.67, 0 -183.33, 0 -220 M0 0 C0 -36.67, 0 -183.33, 0 -220" stroke="#1e1e1e" stroke-width="4" fill="none"></path></g><g transform="translate(2024 458) rotate(0 0 -110)"><path d="M8.55 -196.51 C6.55 -202.01, 4.55 -207.51, 0 -220 M8.55 -196.51 C5.29 -205.46, 2.04 -214.4, 0 -220" stroke="#1e1e1e" stroke-width="4" fill="none"></path></g><g transform="translate(2024 458) rotate(0 0 -110)"><path d="M-8.55 -196.51 C-6.55 -202.01, -4.55 -207.51, 0 -220 M-8.55 -196.51 C-5.29 -205.46, -2.04 -214.4, 0 -220" stroke="#1e1e1e" stroke-width="4" fill="none"></path></g></g><mask></mask></svg>